<svg id="Group_35" data-name="Group 35" xmlns="http://www.w3.org/2000/svg" viewBox="0 0 151.127 131.667">
  <defs>
    <style>
      .cls-1 {
        fill: #d02879;
      }

      .cls-2 {
        fill: #2c95d2;
      }
    </style>
  </defs>
  <g id="Group_34" data-name="Group 34">
    <path id="Path_101" data-name="Path 101" class="cls-1" d="M106.166,95.237H1.784A1.809,1.809,0,0,1,0,93.453V1.784A1.809,1.809,0,0,1,1.784,0H112.931a1.809,1.809,0,0,1,1.784,1.784V86.762a1.784,1.784,0,1,1-3.569,0V3.494H3.494V91.669H106.166a1.784,1.784,0,0,1,0,3.569Z"/>
    <path id="Path_102" data-name="Path 102" class="cls-1" d="M112.857,22.169H1.784a1.784,1.784,0,1,1,0-3.569H112.931a1.809,1.809,0,0,1,1.784,1.784A1.875,1.875,0,0,1,112.857,22.169Z" transform="translate(0 -4.772)"/>
    <path id="Path_103" data-name="Path 103" class="cls-1" d="M51.024,51.346a1.809,1.809,0,0,1-1.784-1.784V37.294H17.494V49.561a1.809,1.809,0,0,1-1.784,1.784A1.746,1.746,0,0,1,14,49.561V35.584A1.809,1.809,0,0,1,15.784,33.8h35.24a1.809,1.809,0,0,1,1.784,1.784V49.561A1.809,1.809,0,0,1,51.024,51.346Z" transform="translate(-3.592 -8.671)"/>
    <path id="Path_104" data-name="Path 104" class="cls-1" d="M51.024,71.669H15.784a1.784,1.784,0,0,1,0-3.569h35.24a1.809,1.809,0,0,1,1.784,1.784A1.761,1.761,0,0,1,51.024,71.669Z" transform="translate(-3.592 -17.47)"/>
    <path id="Path_105" data-name="Path 105" class="cls-1" d="M51.024,84.069H15.784a1.784,1.784,0,0,1,0-3.569h35.24a1.784,1.784,0,1,1,0,3.569Z" transform="translate(-3.592 -20.652)"/>
    <path id="Path_106" data-name="Path 106" class="cls-1" d="M51.024,96.569H15.784a1.784,1.784,0,0,1,0-3.569h35.24a1.784,1.784,0,1,1,0,3.569Z" transform="translate(-3.592 -23.858)"/>
    <path id="Path_107" data-name="Path 107" class="cls-1" d="M118.394,146.793H28.584a1.809,1.809,0,0,1-1.784-1.784V125.084a1.784,1.784,0,1,1,3.569,0v18.14h88.026a1.784,1.784,0,0,1,0,3.569Z" transform="translate(-6.875 -31.631)"/>
    <path id="Path_108" data-name="Path 108" class="cls-1" d="M171.109,100.674a1.809,1.809,0,0,1-1.784-1.784V30.269h-18.14a1.784,1.784,0,0,1,0-3.569h19.925a1.809,1.809,0,0,1,1.784,1.784V98.89A1.718,1.718,0,0,1,171.109,100.674Z" transform="translate(-38.327 -6.85)"/>
  </g>
  <path id="Path_109" data-name="Path 109" class="cls-2" d="M179.038,160.123a1.741,1.741,0,0,1-1.264-.52l-17.025-17.025-10.185,10.185a1.788,1.788,0,0,1-2.974-.818l-10.408-38.809a1.747,1.747,0,0,1,2.156-2.156l38.809,10.408a1.788,1.788,0,0,1,.818,2.974l-10.185,10.185L185.8,151.574a1.75,1.75,0,0,1,0,2.453l-5.576,5.576A1.479,1.479,0,0,1,179.038,160.123ZM160.748,138.34a1.741,1.741,0,0,1,1.264.52l17.025,17.025,3.048-3.048L165.06,135.812a1.794,1.794,0,0,1-.52-1.264,1.741,1.741,0,0,1,.52-1.264l9.293-9.293-32.935-8.847,8.847,32.935,9.293-9.293A2.107,2.107,0,0,1,160.748,138.34Z" transform="translate(-35.178 -28.457)"/>
</svg>
