<svg id="Group_36" data-name="Group 36" xmlns="http://www.w3.org/2000/svg" viewBox="0 0 134.689 108.564">
  <defs>
    <style>
      .cls-1 {
        fill: #2c95d2;
      }

      .cls-2 {
        fill: #d02879;
      }
    </style>
  </defs>
  <path id="Path_110" data-name="Path 110" class="cls-1" d="M146.184,94.373,96.256,48.509a3.544,3.544,0,0,0-.387-4.644l-1.677-1.677,6.773-6.773a6.067,6.067,0,0,0,1.613-2.774l.71.71a4.732,4.732,0,0,0,3.354,1.355A4.844,4.844,0,0,0,110,33.35l3.741-3.741a4.751,4.751,0,0,0,0-6.644L92.192,1.355A4.625,4.625,0,0,0,88.838,0a4.9,4.9,0,0,0-3.354,1.355L81.742,5.161a4.751,4.751,0,0,0,0,6.644l.71.71a5.55,5.55,0,0,0-2.774,1.613L54.327,39.542a6.7,6.7,0,0,0-1.613,2.774l-.71-.71a4.625,4.625,0,0,0-3.354-1.355A4.9,4.9,0,0,0,45.3,41.607l-3.741,3.741a4.751,4.751,0,0,0,0,6.644L63.1,73.537a4.625,4.625,0,0,0,3.354,1.355,4.9,4.9,0,0,0,3.354-1.355L73.55,69.8A4.625,4.625,0,0,0,74.9,66.441a4.9,4.9,0,0,0-1.355-3.354l-.71-.71a5.55,5.55,0,0,0,2.774-1.613l6.773-6.773,1.677,1.677a3.553,3.553,0,0,0,2.58,1.032,3.821,3.821,0,0,0,2.129-.71l45.864,49.928a8.245,8.245,0,0,0,6.064,2.645h.065a8.288,8.288,0,0,0,8.192-8.192A8.456,8.456,0,0,0,146.184,94.373ZM71.292,67.538l-3.741,3.741a1.6,1.6,0,0,1-2.193,0L43.748,49.8a1.6,1.6,0,0,1,0-2.193l3.741-3.741a1.511,1.511,0,0,1,1.1-.452,1.683,1.683,0,0,1,1.1.452L71.228,65.409a1.511,1.511,0,0,1,.452,1.1A1.07,1.07,0,0,1,71.292,67.538ZM84,7.354l3.741-3.741a1.6,1.6,0,0,1,2.193,0l21.545,21.545a1.6,1.6,0,0,1,0,2.193l-3.741,3.741a1.6,1.6,0,0,1-2.193,0l-4.58-4.58h0l-12.45-12.45h0l-4.58-4.58A1.464,1.464,0,0,1,84,7.354ZM73.356,58.572a3.076,3.076,0,0,1-4.386,0L56.52,46.122a3.115,3.115,0,0,1,0-4.386L81.936,16.32a3.186,3.186,0,0,1,2.193-.9,3.307,3.307,0,0,1,2.193.9l12.45,12.514a3.076,3.076,0,0,1,0,4.386Zm12.9-5.1L84.58,51.8l7.354-7.354,1.677,1.677a.431.431,0,0,1,0,.645L86.9,53.476A.431.431,0,0,1,86.257,53.476Zm54.379,52.057h0a4.986,4.986,0,0,1-3.806-1.677L90.966,53.863l3.1-3.1L144.055,96.63a5.329,5.329,0,0,1,1.677,3.806A5.192,5.192,0,0,1,140.636,105.532Z" transform="translate(-14.268 0)"/>
  <path id="Path_111" data-name="Path 111" class="cls-2" d="M66.248,137.863H63.539v-4.451a7.626,7.626,0,0,0-7.612-7.612H17.933a7.626,7.626,0,0,0-7.612,7.612v4.451H7.612A7.626,7.626,0,0,0,0,145.474v5.354a1.57,1.57,0,0,0,1.548,1.548h70.7a1.57,1.57,0,0,0,1.548-1.548v-5.354A7.53,7.53,0,0,0,66.248,137.863ZM70.7,149.28H3.161v-3.806a4.46,4.46,0,0,1,4.451-4.451H25.48a1.548,1.548,0,1,0,0-3.1h-12v-4.451a4.46,4.46,0,0,1,4.451-4.451H55.927a4.46,4.46,0,0,1,4.451,4.451v4.451h-4a1.548,1.548,0,1,0,0,3.1h9.869a4.46,4.46,0,0,1,4.451,4.451Z" transform="translate(0 -44.651)"/>
</svg>
