<svg xmlns="http://www.w3.org/2000/svg" xmlns:xlink="http://www.w3.org/1999/xlink" viewBox="0 0 133.62 110.06"><defs><style>.cls-1{fill:#abc1ca;}.cls-2{fill:url(#linear-gradient);}.cls-3{fill:#d9295a;}.cls-4{fill:#6d8b9a;}</style><linearGradient id="linear-gradient" x1="56.91" y1="30.88" x2="77.52" y2="30.88" gradientUnits="userSpaceOnUse"><stop offset="0" stop-color="#d12979"/><stop offset="1" stop-color="#e53c4e"/></linearGradient></defs><title>OzDebt_Color_Tagline</title><g id="Layer_2" data-name="Layer 2"><g id="Layer_1-2" data-name="Layer 1"><path class="cls-1" d="M66.81,61.9a1.32,1.32,0,0,1-.34,0c-1.29-.37-24-13.12-24-25.73V11.57a1.23,1.23,0,0,1,1.23-1.23c2.47,0,7.35-1.49,12.44-3.79,5.61-2.54,9-4.89,9.7-6a1.24,1.24,0,0,1,1-.55h0a1.22,1.22,0,0,1,1,.55c.76,1.14,4,3.5,9.5,6,5.07,2.34,9.91,3.79,12.62,3.79a1.23,1.23,0,0,1,1.23,1.23V37.42c0,10.44-23,24.13-24,24.44A1.24,1.24,0,0,1,66.81,61.9ZM44.88,12.72V36.13c0,5.5,5.68,11.39,10.45,15.35A73.92,73.92,0,0,0,66.8,59.33c3.39-1.76,21.93-14,21.93-21.91V12.73a43.3,43.3,0,0,1-12.42-4C72.87,7.2,68.89,5,66.81,3.06,62.76,6.75,50.9,12,44.88,12.72Z"/><path class="cls-1" d="M66.32,55.46a1.23,1.23,0,0,1-.4-2.39c2.16-1,17.45-12.15,17.45-18.23V16.74a1.23,1.23,0,1,1,2.45,0v18.1c0,8-17.78,20.18-19.17,20.57A1.26,1.26,0,0,1,66.32,55.46ZM66,53.05h0Z"/><path class="cls-1" d="M49,36.87a1.23,1.23,0,0,1-1.23-1.23V16.25A1.23,1.23,0,0,1,49,15c4.4,0,15.82-5,17.26-7.21a1.23,1.23,0,1,1,2,1.37c-1.88,2.8-12.53,7.53-18.07,8.21V35.64A1.23,1.23,0,0,1,49,36.87Z"/><path class="cls-2" d="M64.34,40.5l-7-9.36a1.5,1.5,0,0,1,0-2.1,1.48,1.48,0,0,1,2.1,0l4.77,4.78L74.94,21.75a1.48,1.48,0,1,1,2.21,2Z"/><path class="cls-3" d="M0,85.4c0-7.07,5.57-12.2,13.17-12.2s13.17,5.13,13.17,12.2S20.77,97.6,13.17,97.6,0,92.47,0,85.4Zm18.4,0c0-3.63-2.33-5.83-5.23-5.83s-5.23,2.2-5.23,5.83,2.33,5.84,5.23,5.84S18.4,89,18.4,85.4Z"/><path class="cls-3" d="M49.64,91v6.1H28.2V92.24L38.87,79.83H28.54v-6.1H49.11v4.84L38.44,91Z"/><path class="cls-3" d="M56.87,73.73h9.84c7.5,0,12.6,4.74,12.6,11.67s-5.1,11.67-12.6,11.67H56.87Zm9.64,20.44c5.77,0,9.47-3.53,9.47-8.77s-3.7-8.77-9.47-8.77h-6.3V94.17Z"/><path class="cls-3" d="M98.71,89.3H84.38c.4,3.1,2.9,5.17,6.4,5.17a6.61,6.61,0,0,0,5.1-2.13l1.77,2.06a8.87,8.87,0,0,1-7,2.87c-5.7,0-9.5-3.77-9.5-9a8.65,8.65,0,0,1,8.86-9c5.11,0,8.74,3.67,8.74,9.1A8.36,8.36,0,0,1,98.71,89.3ZM84.38,87H95.71a5.7,5.7,0,0,0-11.33,0Z"/><path class="cls-3" d="M120.38,88.23a8.6,8.6,0,0,1-8.93,9,7.46,7.46,0,0,1-6.3-3v2.8h-3.07V72.33h3.2v9.74a7.53,7.53,0,0,1,6.17-2.84A8.58,8.58,0,0,1,120.38,88.23Zm-3.23,0a6,6,0,1,0-11.9,0c0,3.77,2.56,6.24,5.93,6.24A5.86,5.86,0,0,0,117.15,88.23Z"/><path class="cls-3" d="M133.62,96a6.08,6.08,0,0,1-3.87,1.23c-3.57,0-5.6-2-5.6-5.53V82h-3V79.4h3V75.53h3.2V79.4h5.07V82h-5.07V91.6c0,1.9,1,3,2.76,3a4.07,4.07,0,0,0,2.51-.83Z"/><path class="cls-4" d="M26,105.41a1.43,1.43,0,0,1,.32,1v2.09a.21.21,0,0,1-.22.22.2.2,0,0,1-.16-.06.21.21,0,0,1-.06-.16v-.44a1.18,1.18,0,0,1-.45.51,1.27,1.27,0,0,1-.67.18,1.46,1.46,0,0,1-.63-.14,1.26,1.26,0,0,1-.46-.39,1,1,0,0,1-.16-.55.92.92,0,0,1,.2-.62,1.31,1.31,0,0,1,.69-.31,7.29,7.29,0,0,1,1.32-.1h.16v-.27a1.07,1.07,0,0,0-.2-.71.82.82,0,0,0-.62-.22,2,2,0,0,0-1,.29l-.11.07a.25.25,0,0,1-.16.07.14.14,0,0,1-.12-.06.21.21,0,0,1-.05-.13c0-.11.09-.22.26-.32a2.43,2.43,0,0,1,.57-.23,2.7,2.7,0,0,1,.62-.08A1.3,1.3,0,0,1,26,105.41Zm-.43,2.65a1.14,1.14,0,0,0,.31-.83V107h-.14a7.32,7.32,0,0,0-1.08.06,1.11,1.11,0,0,0-.53.2.57.57,0,0,0-.15.42.68.68,0,0,0,.23.51.89.89,0,0,0,.58.2A1,1,0,0,0,25.54,108.06Z"/><path class="cls-4" d="M30.56,105.15a.23.23,0,0,1,.06.16v3.21a.24.24,0,0,1-.06.17.24.24,0,0,1-.32,0,.23.23,0,0,1,0-.17v-.44a1.31,1.31,0,0,1-.48.51,1.41,1.41,0,0,1-.71.18,1.23,1.23,0,0,1-.95-.35,1.49,1.49,0,0,1-.32-1v-2.08a.23.23,0,0,1,.06-.16.24.24,0,0,1,.17-.06.21.21,0,0,1,.16.06.23.23,0,0,1,.06.16v2a1.18,1.18,0,0,0,.21.77.81.81,0,0,0,.65.24,1.1,1.1,0,0,0,.83-.33,1.21,1.21,0,0,0,.31-.86v-1.87a.23.23,0,0,1,.06-.16.24.24,0,0,1,.32,0Z"/><path class="cls-4" d="M33.84,108.57a.18.18,0,0,1-.06.14.35.35,0,0,1-.22,0h-.2a1.2,1.2,0,0,1-.83-.34,1.45,1.45,0,0,1-.26-.93v-2h-.56a.2.2,0,0,1-.14,0,.17.17,0,0,1-.05-.13.21.21,0,0,1,.05-.13.2.2,0,0,1,.14,0h.56v-.91a.29.29,0,0,1,0-.17.24.24,0,0,1,.17-.06.23.23,0,0,1,.16.06.24.24,0,0,1,.06.17v.91h.89a.25.25,0,0,1,.15,0,.21.21,0,0,1,0,.13.17.17,0,0,1,0,.13.25.25,0,0,1-.15,0h-.89v2a1,1,0,0,0,.18.65.8.8,0,0,0,.55.22l.2,0C33.77,108.39,33.84,108.46,33.84,108.57Z"/><path class="cls-4" d="M35.33,108.54a1.51,1.51,0,0,1-.57-.65,2.1,2.1,0,0,1-.21-1,2.17,2.17,0,0,1,.21-1,1.54,1.54,0,0,1,.57-.64,1.65,1.65,0,0,1,.86-.23,1.62,1.62,0,0,1,.86.23,1.56,1.56,0,0,1,.58.64,2.32,2.32,0,0,1,.2,1,2.24,2.24,0,0,1-.2,1,1.53,1.53,0,0,1-.58.65,1.62,1.62,0,0,1-.86.23A1.65,1.65,0,0,1,35.33,108.54Zm1.73-.54a2,2,0,0,0,0-2.15,1.06,1.06,0,0,0-.87-.39,1,1,0,0,0-.86.39,1.63,1.63,0,0,0-.31,1.07,1.69,1.69,0,0,0,.3,1.08,1,1,0,0,0,.87.37A1.07,1.07,0,0,0,37.06,108Z"/><path class="cls-4" d="M44.09,106.45v2.07a.24.24,0,0,1-.06.17.21.21,0,0,1-.16.06.21.21,0,0,1-.23-.23v-2a1.21,1.21,0,0,0-.19-.77.74.74,0,0,0-.61-.24,1,1,0,0,0-.76.32,1.26,1.26,0,0,0-.28.87v1.86a.24.24,0,0,1-.06.17.24.24,0,0,1-.32,0,.21.21,0,0,1-.07-.17v-2a1.21,1.21,0,0,0-.19-.77.72.72,0,0,0-.61-.24,1,1,0,0,0-.75.32,1.27,1.27,0,0,0-.29.87v1.86a.29.29,0,0,1,0,.17.24.24,0,0,1-.17.06.23.23,0,0,1-.16-.06.24.24,0,0,1-.06-.17v-3.21a.21.21,0,0,1,.06-.16.23.23,0,0,1,.16-.06.2.2,0,0,1,.16.06.21.21,0,0,1,.06.16v.44a1.16,1.16,0,0,1,.44-.51,1.33,1.33,0,0,1,.67-.17,1,1,0,0,1,1.09.71,1.19,1.19,0,0,1,.47-.52,1.35,1.35,0,0,1,.73-.19C43.69,105.07,44.09,105.53,44.09,106.45Z"/><path class="cls-4" d="M47.91,105.41a1.43,1.43,0,0,1,.32,1v2.09a.22.22,0,1,1-.44,0v-.44a1.18,1.18,0,0,1-.45.51,1.27,1.27,0,0,1-.67.18,1.46,1.46,0,0,1-.63-.14,1.15,1.15,0,0,1-.45-.39,1,1,0,0,1-.17-.55.88.88,0,0,1,.21-.62,1.23,1.23,0,0,1,.68-.31,7.29,7.29,0,0,1,1.32-.1h.16v-.27a1.07,1.07,0,0,0-.2-.71.82.82,0,0,0-.62-.22,2,2,0,0,0-1,.29l-.11.07a.25.25,0,0,1-.16.07.14.14,0,0,1-.12-.06.21.21,0,0,1,0-.13c0-.11.09-.22.26-.32a2.43,2.43,0,0,1,.57-.23,2.7,2.7,0,0,1,.62-.08A1.3,1.3,0,0,1,47.91,105.41Zm-.43,2.65a1.14,1.14,0,0,0,.31-.83V107h-.14a7.32,7.32,0,0,0-1.08.06,1.11,1.11,0,0,0-.53.2.57.57,0,0,0-.15.42.68.68,0,0,0,.23.51.89.89,0,0,0,.58.2A1,1,0,0,0,47.48,108.06Z"/><path class="cls-4" d="M51.44,108.57a.16.16,0,0,1-.07.14.3.3,0,0,1-.21,0H51a1.18,1.18,0,0,1-.82-.34,1.39,1.39,0,0,1-.27-.93v-2H49.3a.19.19,0,0,1-.13,0,.15.15,0,0,1-.06-.13.18.18,0,0,1,.06-.13.19.19,0,0,1,.13,0h.56v-.91a.24.24,0,0,1,.06-.17.21.21,0,0,1,.16-.06.25.25,0,0,1,.17.06.24.24,0,0,1,.06.17v.91h.89a.2.2,0,0,1,.14,0,.17.17,0,0,1,0,.13.14.14,0,0,1,0,.13.2.2,0,0,1-.14,0h-.89v2a1,1,0,0,0,.17.65.82.82,0,0,0,.55.22l.2,0C51.37,108.39,51.44,108.46,51.44,108.57Z"/><path class="cls-4" d="M55.21,108a.15.15,0,0,1,0,.13c0,.1-.08.21-.25.31a2.13,2.13,0,0,1-1.11.32,1.71,1.71,0,0,1-1.28-.49,1.85,1.85,0,0,1-.47-1.35,2.13,2.13,0,0,1,.21-1,1.56,1.56,0,0,1,.58-.66,1.66,1.66,0,0,1,.87-.23,1.39,1.39,0,0,1,1.09.45,1.73,1.73,0,0,1,.4,1.22.27.27,0,0,1-.06.19.25.25,0,0,1-.19.06H52.61a1.52,1.52,0,0,0,.35,1,1.23,1.23,0,0,0,.93.35,1.6,1.6,0,0,0,.53-.08,3.21,3.21,0,0,0,.45-.23.62.62,0,0,1,.23-.11A.13.13,0,0,1,55.21,108ZM53,105.76a1.54,1.54,0,0,0-.37.9h2.27a1.4,1.4,0,0,0-.29-.9,1,1,0,0,0-.79-.32A1.11,1.11,0,0,0,53,105.76Z"/><path class="cls-4" d="M59.49,103.57a.25.25,0,0,1,.06.17v4.78a.21.21,0,0,1-.06.16.24.24,0,0,1-.17.06.21.21,0,0,1-.22-.22V108a1.21,1.21,0,0,1-.47.55,1.49,1.49,0,0,1-.75.19,1.54,1.54,0,0,1-.83-.23,1.65,1.65,0,0,1-.56-.66,2.57,2.57,0,0,1,0-1.94,1.59,1.59,0,0,1,.56-.64,1.54,1.54,0,0,1,.83-.23,1.39,1.39,0,0,1,.75.19,1.16,1.16,0,0,1,.47.55v-2.07a.25.25,0,0,1,.06-.17.21.21,0,0,1,.16-.06A.24.24,0,0,1,59.49,103.57ZM58.8,108a1.68,1.68,0,0,0,.3-1.07,1.73,1.73,0,0,0-.3-1.08,1,1,0,0,0-.86-.38,1.08,1.08,0,0,0-.87.38,1.68,1.68,0,0,0-.31,1.07,1.73,1.73,0,0,0,.31,1.08,1.08,1.08,0,0,0,.87.38A1,1,0,0,0,58.8,108Z"/><path class="cls-4" d="M66.12,103.57a.25.25,0,0,1,.06.17v4.78a.21.21,0,0,1-.06.16.24.24,0,0,1-.17.06.23.23,0,0,1-.16-.06.21.21,0,0,1-.06-.16V108a1.15,1.15,0,0,1-.47.55,1.49,1.49,0,0,1-.75.19,1.44,1.44,0,0,1-1.38-.89,2.45,2.45,0,0,1,0-1.94,1.5,1.5,0,0,1,.55-.64,1.54,1.54,0,0,1,.83-.23,1.39,1.39,0,0,1,.75.19,1.11,1.11,0,0,1,.47.55v-2.07a.25.25,0,0,1,.06-.17.23.23,0,0,1,.16-.06A.24.24,0,0,1,66.12,103.57ZM65.43,108a1.68,1.68,0,0,0,.3-1.07,1.73,1.73,0,0,0-.3-1.08,1,1,0,0,0-.85-.38,1.09,1.09,0,0,0-.88.38,1.68,1.68,0,0,0-.3,1.07,1.73,1.73,0,0,0,.3,1.08,1.08,1.08,0,0,0,.87.38A1,1,0,0,0,65.43,108Z"/><path class="cls-4" d="M70.49,108a.18.18,0,0,1,0,.13c0,.1-.08.21-.24.31a2.19,2.19,0,0,1-1.12.32,1.71,1.71,0,0,1-1.28-.49,1.9,1.9,0,0,1-.47-1.35,2.13,2.13,0,0,1,.21-1,1.56,1.56,0,0,1,.58-.66,1.71,1.71,0,0,1,.87-.23,1.37,1.37,0,0,1,1.09.45,1.73,1.73,0,0,1,.4,1.22.27.27,0,0,1-.06.19.25.25,0,0,1-.19.06H67.88a1.57,1.57,0,0,0,.35,1,1.23,1.23,0,0,0,.93.35,1.6,1.6,0,0,0,.53-.08,3.93,3.93,0,0,0,.46-.23.53.53,0,0,1,.22-.11A.16.16,0,0,1,70.49,108Zm-2.23-2.25a1.54,1.54,0,0,0-.36.9h2.26a1.4,1.4,0,0,0-.29-.9,1,1,0,0,0-.79-.32A1.11,1.11,0,0,0,68.26,105.76Z"/><path class="cls-4" d="M74.29,105.3a1.52,1.52,0,0,1,.56.64,2.45,2.45,0,0,1,0,1.94,1.58,1.58,0,0,1-.56.66,1.51,1.51,0,0,1-.82.23,1.49,1.49,0,0,1-.75-.19,1.23,1.23,0,0,1-.48-.55v.49a.22.22,0,1,1-.44,0v-4.78a.25.25,0,0,1,.06-.17.24.24,0,0,1,.32,0,.25.25,0,0,1,.06.17v2.07a1.18,1.18,0,0,1,.48-.55,1.39,1.39,0,0,1,.75-.19A1.51,1.51,0,0,1,74.29,105.3Zm0,2.68a1.72,1.72,0,0,0,.31-1.07,1.68,1.68,0,0,0-.31-1.07,1.09,1.09,0,0,0-.88-.38,1,1,0,0,0-.86.38,1.73,1.73,0,0,0-.3,1.08,1.63,1.63,0,0,0,.31,1.07,1,1,0,0,0,.86.38A1.06,1.06,0,0,0,74.28,108Z"/><path class="cls-4" d="M78,108.57a.16.16,0,0,1-.07.14.3.3,0,0,1-.21,0h-.21a1.18,1.18,0,0,1-.82-.34,1.39,1.39,0,0,1-.27-.93v-2h-.55a.2.2,0,0,1-.14,0,.14.14,0,0,1,0-.13.17.17,0,0,1,0-.13.2.2,0,0,1,.14,0h.55v-.91a.24.24,0,0,1,.06-.17.21.21,0,0,1,.16-.06.21.21,0,0,1,.23.23v.91h.89a.2.2,0,0,1,.14,0,.17.17,0,0,1,0,.13.14.14,0,0,1,0,.13.2.2,0,0,1-.14,0h-.89v2a1,1,0,0,0,.18.65.78.78,0,0,0,.55.22l.19,0C78,108.39,78,108.46,78,108.57Z"/><path class="cls-4" d="M83,105.12a.18.18,0,0,1,.06.15c0,.12-.07.19-.22.21l-.22,0a1,1,0,0,0-.77.37,1.21,1.21,0,0,0-.26.76v1.89a.22.22,0,0,1-.06.17.2.2,0,0,1-.16.06.23.23,0,0,1-.16-.06.22.22,0,0,1-.06-.17v-3.21a.21.21,0,0,1,.06-.16.23.23,0,0,1,.16-.06.21.21,0,0,1,.22.22v.47a1.23,1.23,0,0,1,1.11-.69h.1A.28.28,0,0,1,83,105.12Z"/><path class="cls-4" d="M86.66,108a.19.19,0,0,1,0,.13c0,.1-.09.21-.25.31a2.14,2.14,0,0,1-1.12.32,1.71,1.71,0,0,1-1.28-.49,1.9,1.9,0,0,1-.47-1.35,2.13,2.13,0,0,1,.21-1,1.58,1.58,0,0,1,.59-.66,1.66,1.66,0,0,1,.87-.23,1.39,1.39,0,0,1,1.09.45,1.77,1.77,0,0,1,.39,1.22.33.33,0,0,1,0,.19.27.27,0,0,1-.19.06H84.05a1.57,1.57,0,0,0,.36,1,1.23,1.23,0,0,0,.93.35,1.54,1.54,0,0,0,.52-.08,2.82,2.82,0,0,0,.46-.23.55.55,0,0,1,.23-.11A.14.14,0,0,1,86.66,108Zm-2.22-2.25a1.48,1.48,0,0,0-.37.9h2.26a1.35,1.35,0,0,0-.29-.9,1,1,0,0,0-.78-.32A1.08,1.08,0,0,0,84.44,105.76Z"/><path class="cls-4" d="M88.53,108.54a1.47,1.47,0,0,1-.58-.65,2.06,2.06,0,0,1-.21-1,2.16,2.16,0,0,1,.21-1,1.49,1.49,0,0,1,.59-.65,1.57,1.57,0,0,1,.86-.24,2,2,0,0,1,.55.08,1.35,1.35,0,0,1,.47.22.75.75,0,0,1,.18.17.25.25,0,0,1,.06.16.17.17,0,0,1,0,.13.13.13,0,0,1-.11.06.62.62,0,0,1-.23-.13,2.48,2.48,0,0,0-.38-.22,1.26,1.26,0,0,0-.46-.08,1.12,1.12,0,0,0-.9.39,1.69,1.69,0,0,0-.32,1.08,1.6,1.6,0,0,0,.32,1.06,1.11,1.11,0,0,0,.89.38,1.22,1.22,0,0,0,.46-.08,2.37,2.37,0,0,0,.41-.22l.13-.08a.26.26,0,0,1,.1,0,.17.17,0,0,1,.12,0,.2.2,0,0,1,0,.13.25.25,0,0,1-.05.15,1,1,0,0,1-.2.17,1.34,1.34,0,0,1-.48.23,1.82,1.82,0,0,1-.56.09A1.6,1.6,0,0,1,88.53,108.54Z"/><path class="cls-4" d="M92.3,108.54a1.53,1.53,0,0,1-.58-.65,2.1,2.1,0,0,1-.21-1,2.17,2.17,0,0,1,.21-1,1.56,1.56,0,0,1,.58-.64,1.7,1.7,0,0,1,1.71,0,1.56,1.56,0,0,1,.58.64,2.32,2.32,0,0,1,.2,1,2.24,2.24,0,0,1-.2,1,1.53,1.53,0,0,1-.58.65,1.7,1.7,0,0,1-1.71,0ZM94,108a2,2,0,0,0,0-2.15,1.15,1.15,0,0,0-1.73,0,2,2,0,0,0,0,2.15A1.21,1.21,0,0,0,94,108Z"/><path class="cls-4" d="M98.79,105.09a.22.22,0,0,1,.15.06.18.18,0,0,1,.06.14.15.15,0,0,1,0,.09l-1.45,3.19a.29.29,0,0,1-.1.12.3.3,0,0,1-.15,0,.28.28,0,0,1-.16,0,.32.32,0,0,1-.11-.12l-1.46-3.19a.29.29,0,0,1,0-.09.19.19,0,0,1,.08-.15.25.25,0,0,1,.16-.06.18.18,0,0,1,.19.13l1.32,3,1.32-3A.19.19,0,0,1,98.79,105.09Z"/><path class="cls-4" d="M102.82,108a.19.19,0,0,1,.05.13c0,.1-.09.21-.25.31a2.16,2.16,0,0,1-1.12.32,1.71,1.71,0,0,1-1.28-.49,1.9,1.9,0,0,1-.47-1.35,2.13,2.13,0,0,1,.21-1,1.58,1.58,0,0,1,.59-.66,1.66,1.66,0,0,1,.87-.23,1.37,1.37,0,0,1,1.08.45,1.73,1.73,0,0,1,.4,1.22.27.27,0,0,1-.06.19.24.24,0,0,1-.19.06h-2.44a1.57,1.57,0,0,0,.36,1,1.23,1.23,0,0,0,.93.35,1.54,1.54,0,0,0,.52-.08,2.82,2.82,0,0,0,.46-.23.55.55,0,0,1,.23-.11A.14.14,0,0,1,102.82,108Zm-2.23-2.25a1.54,1.54,0,0,0-.36.9h2.26a1.35,1.35,0,0,0-.29-.9,1,1,0,0,0-.78-.32A1.11,1.11,0,0,0,100.59,105.76Z"/><path class="cls-4" d="M106,105.12a.18.18,0,0,1,.06.15c0,.12-.07.19-.22.21l-.22,0a1.05,1.05,0,0,0-.77.37,1.21,1.21,0,0,0-.26.76v1.89a.26.26,0,0,1,0,.17.24.24,0,0,1-.17.06.23.23,0,0,1-.16-.06.22.22,0,0,1-.06-.17v-3.21a.21.21,0,0,1,.06-.16.23.23,0,0,1,.16-.06.21.21,0,0,1,.22.22v.47a1.23,1.23,0,0,1,1.11-.69h.1A.28.28,0,0,1,106,105.12Z"/><path class="cls-4" d="M109.92,105.09a.2.2,0,0,1,.15.06.19.19,0,0,1,.07.14.16.16,0,0,1,0,.09L108,109.93a.21.21,0,0,1-.19.13.2.2,0,0,1-.14-.06.16.16,0,0,1-.07-.13.11.11,0,0,1,0-.08l.52-1.14-1.51-3.27a.29.29,0,0,1,0-.09.19.19,0,0,1,.08-.15.27.27,0,0,1,.16-.06.2.2,0,0,1,.2.13l1.31,3,1.32-3A.2.2,0,0,1,109.92,105.09Z"/></g></g></svg>