<svg xmlns="http://www.w3.org/2000/svg" xmlns:xlink="http://www.w3.org/1999/xlink" viewBox="0 0 48.76 61.9"><defs><style>.cls-1{fill:#abc1ca;}.cls-2{fill:url(#linear-gradient);}</style><linearGradient id="linear-gradient" x1="14.48" y1="30.88" x2="35.1" y2="30.88" gradientUnits="userSpaceOnUse"><stop offset="0" stop-color="#d12979"/><stop offset="1" stop-color="#e53c4e"/></linearGradient></defs><title>OzDebt_Colour_Shield</title><g id="Layer_2" data-name="Layer 2"><g id="Layer_1-2" data-name="Layer 1"><path class="cls-1" d="M24.38,61.9a1.19,1.19,0,0,1-.33,0C22.76,61.49,0,48.74,0,36.13V11.57a1.23,1.23,0,0,1,1.23-1.23c2.47,0,7.36-1.49,12.44-3.79,5.61-2.54,9-4.89,9.7-6a1.24,1.24,0,0,1,1-.55h0a1.25,1.25,0,0,1,1,.55c.75,1.14,4,3.5,9.49,6,5.08,2.34,9.91,3.79,12.62,3.79a1.23,1.23,0,0,1,1.23,1.23V37.42c0,10.44-23,24.13-24,24.44A1.24,1.24,0,0,1,24.38,61.9ZM2.45,12.72V36.13c0,5.5,5.69,11.39,10.45,15.35a74.91,74.91,0,0,0,11.47,7.85c3.39-1.76,21.93-14,21.93-21.91V12.73a43.3,43.3,0,0,1-12.42-4C30.45,7.2,26.46,5,24.38,3.06,20.33,6.75,8.48,12,2.45,12.72Z"/><path class="cls-1" d="M23.89,55.46a1.23,1.23,0,0,1-.4-2.39c2.17-1,17.45-12.15,17.45-18.23V16.74a1.23,1.23,0,1,1,2.45,0v18.1c0,8-17.78,20.18-19.17,20.57A1.26,1.26,0,0,1,23.89,55.46Zm-.33-2.41h0Z"/><path class="cls-1" d="M6.59,36.87a1.22,1.22,0,0,1-1.22-1.23V16.25A1.22,1.22,0,0,1,6.59,15C11,15,22.41,10,23.85,7.81a1.23,1.23,0,1,1,2,1.37C24,12,13.36,16.71,7.82,17.39V35.64A1.23,1.23,0,0,1,6.59,36.87Z"/><path class="cls-2" d="M21.91,40.5l-7-9.36A1.48,1.48,0,1,1,17,29l4.77,4.78L32.51,21.75a1.48,1.48,0,1,1,2.21,2Z"/></g></g></svg>