<svg xmlns="http://www.w3.org/2000/svg" viewBox="0 0 146.55 37.25"><defs><style>.cls-1{fill:#fff;}</style></defs><title>OzDebt_Reversed_Horiz_1</title><g id="Layer_2" data-name="Layer 2"><g id="Layer_1-2" data-name="Layer 1"><path class="cls-1" d="M51.11,19c0-3-1.94-4.83-4.34-4.83S42.43,16,42.43,19s1.94,4.84,4.34,4.84S51.11,22,51.11,19M35.86,19c0-5.85,4.61-10.1,10.91-10.1S57.68,13.13,57.68,19,53.07,29.09,46.77,29.09,35.86,24.84,35.86,19"/><polygon class="cls-1" points="76.98 23.6 76.98 28.65 59.22 28.65 59.22 24.65 68.06 14.37 59.5 14.37 59.5 9.32 76.54 9.32 76.54 13.32 67.7 23.6 76.98 23.6"/><path class="cls-1" d="M91,26.25c4.77,0,7.84-2.93,7.84-7.27S95.73,11.72,91,11.72H85.74V26.25ZM83,9.32h8.15c6.22,0,10.44,3.92,10.44,9.66s-4.22,9.67-10.44,9.67H83Z"/><path class="cls-1" d="M105.76,20.31h9.39a4.72,4.72,0,0,0-9.39,0m11.87,1.91H105.76c.33,2.56,2.4,4.28,5.3,4.28a5.48,5.48,0,0,0,4.23-1.77l1.46,1.71A7.34,7.34,0,0,1,111,28.82c-4.73,0-7.87-3.12-7.87-7.49a7.17,7.17,0,0,1,7.34-7.46c4.23,0,7.24,3,7.24,7.54a7.73,7.73,0,0,1-.06.81"/><path class="cls-1" d="M132.91,21.33a4.93,4.93,0,1,0-9.86,0,4.94,4.94,0,1,0,9.86,0m2.68,0a7.13,7.13,0,0,1-7.41,7.49A6.19,6.19,0,0,1,123,26.33v2.32h-2.54V8.16h2.65v8.06a6.25,6.25,0,0,1,5.11-2.35,7.11,7.11,0,0,1,7.41,7.46"/><path class="cls-1" d="M146.55,27.8a5,5,0,0,1-3.21,1c-3,0-4.64-1.63-4.64-4.59v-8h-2.48V14h2.48v-3.2h2.66V14h4.19v2.18h-4.19v7.93a2.16,2.16,0,0,0,2.29,2.46,3.35,3.35,0,0,0,2.07-.69Z"/><path class="cls-1" d="M1.48,7.65V21.74c0,3.31,3.42,6.85,6.28,9.24a44.35,44.35,0,0,0,6.91,4.72c2-1.06,13.2-8.45,13.2-13.18V7.66a26.22,26.22,0,0,1-7.48-2.37,24.66,24.66,0,0,1-5.72-3.45C12.24,4.06,5.1,7.23,1.48,7.65m13.19,29.6a.69.69,0,0,1-.2,0C13.69,37,0,29.33,0,21.74V7a.74.74,0,0,1,.74-.74c1.49,0,4.43-.89,7.49-2.28C11.61,2.41,13.62,1,14.06.33A.74.74,0,0,1,14.68,0a.71.71,0,0,1,.61.33C15.75,1,17.73,2.44,21,3.94c3,1.41,6,2.28,7.59,2.28a.74.74,0,0,1,.74.74V22.52c0,6.28-13.82,14.52-14.47,14.7a.64.64,0,0,1-.2,0"/><path class="cls-1" d="M14.18,31.92h0Zm.2,1.45a.75.75,0,0,1-.72-.54.74.74,0,0,1,.47-.89c1.31-.6,10.51-7.31,10.51-11V10.07a.74.74,0,1,1,1.47,0V21c0,4.84-10.7,12.15-11.53,12.38l-.2,0"/><path class="cls-1" d="M4,22.19a.74.74,0,0,1-.74-.74V9.78A.74.74,0,0,1,4,9C6.62,9,13.48,6,14.35,4.7a.74.74,0,0,1,1-.2.73.73,0,0,1,.2,1c-1.13,1.69-7.54,4.53-10.87,5v11a.74.74,0,0,1-.74.74"/><path class="cls-1" d="M13.19,24.37,9,18.74a.89.89,0,1,1,1.26-1.26l2.87,2.87,6.45-7.26A.89.89,0,0,1,20.82,13a.88.88,0,0,1,.07,1.25Z"/></g></g></svg>