<svg xmlns="http://www.w3.org/2000/svg" xmlns:xlink="http://www.w3.org/1999/xlink" viewBox="0 0 133.62 97.6"><defs><style>.cls-1{fill:#abc1ca;}.cls-2{fill:url(#linear-gradient);}.cls-3{fill:#d9295a;}</style><linearGradient id="linear-gradient" x1="56.91" y1="30.88" x2="77.52" y2="30.88" gradientUnits="userSpaceOnUse"><stop offset="0" stop-color="#d12979"/><stop offset="1" stop-color="#e53c4e"/></linearGradient></defs><title>OzDebt_Colour_Logo</title><g id="Layer_2" data-name="Layer 2"><g id="Layer_1-2" data-name="Layer 1"><path class="cls-1" d="M66.81,61.9a1.32,1.32,0,0,1-.34,0c-1.29-.37-24-13.12-24-25.73V11.57a1.23,1.23,0,0,1,1.23-1.23c2.47,0,7.35-1.49,12.44-3.79,5.61-2.54,9-4.89,9.7-6a1.24,1.24,0,0,1,1-.55h0a1.22,1.22,0,0,1,1,.55c.76,1.14,4,3.5,9.5,6,5.07,2.34,9.91,3.79,12.62,3.79a1.23,1.23,0,0,1,1.23,1.23V37.42c0,10.44-23,24.13-24,24.44A1.24,1.24,0,0,1,66.81,61.9ZM44.88,12.72V36.13c0,5.5,5.68,11.39,10.45,15.35A73.92,73.92,0,0,0,66.8,59.33c3.39-1.76,21.93-14,21.93-21.91V12.73a43.3,43.3,0,0,1-12.42-4C72.87,7.2,68.89,5,66.81,3.06,62.76,6.75,50.9,12,44.88,12.72Z"/><path class="cls-1" d="M66.32,55.46a1.23,1.23,0,0,1-.4-2.39c2.16-1,17.45-12.15,17.45-18.23V16.74a1.23,1.23,0,1,1,2.45,0v18.1c0,8-17.78,20.18-19.17,20.57A1.26,1.26,0,0,1,66.32,55.46ZM66,53.05h0Z"/><path class="cls-1" d="M49,36.87a1.23,1.23,0,0,1-1.23-1.23V16.25A1.23,1.23,0,0,1,49,15c4.4,0,15.82-5,17.26-7.21a1.23,1.23,0,1,1,2,1.37c-1.88,2.8-12.53,7.53-18.07,8.21V35.64A1.23,1.23,0,0,1,49,36.87Z"/><path class="cls-2" d="M64.34,40.5l-7-9.36a1.5,1.5,0,0,1,0-2.1,1.48,1.48,0,0,1,2.1,0l4.77,4.78L74.94,21.75a1.48,1.48,0,1,1,2.21,2Z"/><path class="cls-3" d="M0,85.4c0-7.07,5.57-12.2,13.17-12.2s13.17,5.13,13.17,12.2S20.77,97.6,13.17,97.6,0,92.47,0,85.4Zm18.4,0c0-3.63-2.33-5.83-5.23-5.83s-5.23,2.2-5.23,5.83,2.33,5.84,5.23,5.84S18.4,89,18.4,85.4Z"/><path class="cls-3" d="M49.64,91v6.1H28.2V92.24L38.87,79.83H28.54v-6.1H49.11v4.84L38.44,91Z"/><path class="cls-3" d="M56.87,73.73h9.84c7.5,0,12.6,4.74,12.6,11.67s-5.1,11.67-12.6,11.67H56.87Zm9.64,20.44c5.77,0,9.47-3.53,9.47-8.77s-3.7-8.77-9.47-8.77h-6.3V94.17Z"/><path class="cls-3" d="M98.71,89.3H84.38c.4,3.1,2.9,5.17,6.4,5.17a6.61,6.61,0,0,0,5.1-2.13l1.77,2.06a8.87,8.87,0,0,1-7,2.87c-5.7,0-9.5-3.77-9.5-9a8.65,8.65,0,0,1,8.86-9c5.11,0,8.74,3.67,8.74,9.1A8.36,8.36,0,0,1,98.71,89.3ZM84.38,87H95.71a5.7,5.7,0,0,0-11.33,0Z"/><path class="cls-3" d="M120.38,88.23a8.6,8.6,0,0,1-8.93,9,7.46,7.46,0,0,1-6.3-3v2.8h-3.07V72.33h3.2v9.74a7.53,7.53,0,0,1,6.17-2.84A8.58,8.58,0,0,1,120.38,88.23Zm-3.23,0a6,6,0,1,0-11.9,0c0,3.77,2.56,6.24,5.93,6.24A5.86,5.86,0,0,0,117.15,88.23Z"/><path class="cls-3" d="M133.62,96a6.08,6.08,0,0,1-3.87,1.23c-3.57,0-5.6-2-5.6-5.53V82h-3V79.4h3V75.53h3.2V79.4h5.07V82h-5.07V91.6c0,1.9,1,3,2.76,3a4.07,4.07,0,0,0,2.51-.83Z"/></g></g></svg>