<svg xmlns="http://www.w3.org/2000/svg" xmlns:xlink="http://www.w3.org/1999/xlink" viewBox="0 0 116.27 37.25"><defs><style>.cls-1{fill:#d9295a;}.cls-2{fill:#6d8b9a;}.cls-3{fill:#abc1ca;}.cls-4{fill:url(#linear-gradient);}</style><linearGradient id="linear-gradient" x1="8.71" y1="18.58" x2="21.12" y2="18.58" gradientUnits="userSpaceOnUse"><stop offset="0" stop-color="#d12979"/><stop offset="1" stop-color="#e53c4e"/></linearGradient></defs><title>OZDebt_Colour_Horiz</title><g id="Layer_2" data-name="Layer 2"><g id="Layer_1-2" data-name="Layer 1"><path class="cls-1" d="M46.93,15.64a3.17,3.17,0,1,0-6.3,0,3.17,3.17,0,1,0,6.3,0m-11.07,0c0-4.25,3.35-7.34,7.92-7.34s7.93,3.09,7.93,7.34S48.36,23,43.78,23s-7.92-3.09-7.92-7.34"/><polygon class="cls-1" points="65.73 18.99 65.73 22.66 52.83 22.66 52.83 19.75 59.25 12.29 53.03 12.29 53.03 8.62 65.41 8.62 65.41 11.53 58.99 18.99 65.73 18.99"/><path class="cls-1" d="M75.88,20.92c3.47,0,5.7-2.13,5.7-5.28s-2.23-5.28-5.7-5.28H72.09V20.92Zm-5.8-12.3H76c4.52,0,7.59,2.85,7.59,7s-3.07,7-7.59,7H70.08Z"/><path class="cls-1" d="M86.63,16.6h6.83a3.44,3.44,0,0,0-6.83,0M95.26,18H86.63a3.61,3.61,0,0,0,3.86,3.11,4,4,0,0,0,3.07-1.29l1.06,1.25a5.34,5.34,0,0,1-4.19,1.72c-3.44,0-5.72-2.27-5.72-5.44a5.2,5.2,0,0,1,5.34-5.41A5.12,5.12,0,0,1,95.3,17.4c0,.17,0,.41,0,.59"/><path class="cls-1" d="M106.36,17.34a3.59,3.59,0,1,0-7.17,0,3.59,3.59,0,1,0,7.17,0m1.94,0a5.17,5.17,0,0,1-5.37,5.44,4.52,4.52,0,0,1-3.8-1.8v1.68H97.29V7.77h1.92v5.86a4.55,4.55,0,0,1,3.72-1.7,5.15,5.15,0,0,1,5.37,5.41"/><path class="cls-1" d="M116.27,22a3.67,3.67,0,0,1-2.33.74,3,3,0,0,1-3.37-3.33V13.61h-1.81V12h1.81V9.7h1.92V12h3.05v1.58h-3.05v5.76a1.57,1.57,0,0,0,1.67,1.79,2.42,2.42,0,0,0,1.5-.5Z"/><path class="cls-2" d="M43.42,31.3a.92.92,0,0,0,.24-.65v-.19h-.11a5.83,5.83,0,0,0-.85.05.75.75,0,0,0-.42.16.41.41,0,0,0-.12.32.52.52,0,0,0,.18.41.73.73,0,0,0,.46.16.82.82,0,0,0,.62-.26m.33-2.09A1.11,1.11,0,0,1,44,30v1.66a.21.21,0,0,1,0,.13.17.17,0,0,1-.13.05.19.19,0,0,1-.13-.05.2.2,0,0,1,0-.13v-.35a.88.88,0,0,1-.36.4.93.93,0,0,1-.53.14,1,1,0,0,1-.5-.11.79.79,0,0,1-.35-.3.78.78,0,0,1-.13-.44.69.69,0,0,1,.16-.49,1,1,0,0,1,.54-.25,5.74,5.74,0,0,1,1-.07h.12V30a.77.77,0,0,0-.16-.55.61.61,0,0,0-.49-.18,1.6,1.6,0,0,0-.82.22l-.09.07a.24.24,0,0,1-.12,0,.13.13,0,0,1-.1,0,.18.18,0,0,1,0-.11c0-.08.07-.16.21-.25A2.34,2.34,0,0,1,42.5,29a2.05,2.05,0,0,1,.49-.06,1,1,0,0,1,.76.27"/><path class="cls-2" d="M47.39,29a.19.19,0,0,1,0,.13v2.54a.17.17,0,0,1,0,.13.19.19,0,0,1-.13.05.17.17,0,0,1-.12-.05.17.17,0,0,1,0-.13v-.35a.92.92,0,0,1-.38.4,1,1,0,0,1-.56.14,1,1,0,0,1-.75-.27,1.18,1.18,0,0,1-.25-.82V29.13A.15.15,0,0,1,45.2,29a.17.17,0,0,1,.13-.05.17.17,0,0,1,.12.05.15.15,0,0,1,0,.13v1.62a.94.94,0,0,0,.17.61.64.64,0,0,0,.52.19.87.87,0,0,0,.65-.26,1,1,0,0,0,.24-.69V29.13a.19.19,0,0,1,.05-.13.17.17,0,0,1,.13-.05.19.19,0,0,1,.13.05"/><path class="cls-2" d="M50,31.71a.13.13,0,0,1,0,.11.26.26,0,0,1-.17,0H49.6a.91.91,0,0,1-.65-.27,1.08,1.08,0,0,1-.21-.73V29.29H48.3a.16.16,0,0,1-.11,0,.13.13,0,0,1,0-.1.14.14,0,0,1,0-.11.12.12,0,0,1,.11,0h.44v-.72a.17.17,0,0,1,0-.13.19.19,0,0,1,.26,0,.17.17,0,0,1,.05.13V29h.7a.16.16,0,0,1,.12,0,.18.18,0,0,1,0,.11.18.18,0,0,1,0,.1.21.21,0,0,1-.12,0h-.7v1.56a.79.79,0,0,0,.14.52.61.61,0,0,0,.43.17l.16,0c.11,0,.16.06.16.15"/><path class="cls-2" d="M52.53,31.25a1.6,1.6,0,0,0,0-1.7.92.92,0,0,0-1.36,0,1.65,1.65,0,0,0,0,1.7.94.94,0,0,0,1.38,0m-1.37.43a1.25,1.25,0,0,1-.45-.51,1.68,1.68,0,0,1-.16-.77,1.71,1.71,0,0,1,.16-.77,1.25,1.25,0,0,1,.45-.51,1.28,1.28,0,0,1,.68-.18,1.25,1.25,0,0,1,.68.18,1.2,1.2,0,0,1,.46.51,1.86,1.86,0,0,1,.16.77,1.82,1.82,0,0,1-.16.77,1.2,1.2,0,0,1-.46.51,1.25,1.25,0,0,1-.68.18,1.28,1.28,0,0,1-.68-.18"/><path class="cls-2" d="M58.09,30v1.64a.17.17,0,0,1-.18.18.21.21,0,0,1-.13-.05.17.17,0,0,1-.05-.13V30.05a1,1,0,0,0-.15-.61.59.59,0,0,0-.48-.19.76.76,0,0,0-.6.26,1,1,0,0,0-.22.68v1.48a.17.17,0,0,1-.05.13.17.17,0,0,1-.12.05A.17.17,0,0,1,56,31.8a.14.14,0,0,1,0-.13V30.05a1,1,0,0,0-.16-.61.59.59,0,0,0-.48-.19.76.76,0,0,0-.6.26,1,1,0,0,0-.22.68v1.48a.17.17,0,0,1,0,.13.17.17,0,0,1-.12.05.17.17,0,0,1-.13-.05.14.14,0,0,1-.05-.13V29.13a.14.14,0,0,1,.05-.13A.17.17,0,0,1,54.3,29a.17.17,0,0,1,.12.05.17.17,0,0,1,0,.13v.34a.91.91,0,0,1,.36-.39,1,1,0,0,1,.53-.14.82.82,0,0,1,.86.56.87.87,0,0,1,.37-.41,1.1,1.1,0,0,1,.57-.15c.63,0,.94.36.94,1.09"/><path class="cls-2" d="M60.77,31.3a.92.92,0,0,0,.24-.65v-.19H60.9a5.93,5.93,0,0,0-.85.05.82.82,0,0,0-.42.16.41.41,0,0,0-.12.32.53.53,0,0,0,.19.41.69.69,0,0,0,.46.16.8.8,0,0,0,.61-.26m.34-2.09a1.11,1.11,0,0,1,.25.8v1.66a.2.2,0,0,1,0,.13.19.19,0,0,1-.13.05.17.17,0,0,1-.13-.05.21.21,0,0,1-.05-.13v-.35a.86.86,0,0,1-.35.4.93.93,0,0,1-.53.14,1,1,0,0,1-.5-.11.88.88,0,0,1-.36-.3.87.87,0,0,1-.13-.44.74.74,0,0,1,.16-.49,1,1,0,0,1,.54-.25,5.74,5.74,0,0,1,1-.07H61V30a.82.82,0,0,0-.15-.55.63.63,0,0,0-.49-.18,1.6,1.6,0,0,0-.82.22l-.09.07a.24.24,0,0,1-.13,0,.11.11,0,0,1-.09,0,.14.14,0,0,1,0-.11c0-.08.07-.16.2-.25a2.75,2.75,0,0,1,.46-.18,2.05,2.05,0,0,1,.49-.06,1,1,0,0,1,.76.27"/><path class="cls-2" d="M63.9,31.71a.16.16,0,0,1,0,.11.26.26,0,0,1-.17,0h-.16a.91.91,0,0,1-.65-.27,1.08,1.08,0,0,1-.21-.73V29.29h-.44a.21.21,0,0,1-.12,0,.18.18,0,0,1,0-.1.18.18,0,0,1,0-.11.16.16,0,0,1,.12,0h.44v-.72a.17.17,0,0,1,0-.13.19.19,0,0,1,.26,0,.17.17,0,0,1,0,.13V29h.7a.16.16,0,0,1,.12,0,.18.18,0,0,1,0,.11.18.18,0,0,1,0,.1.21.21,0,0,1-.12,0H63v1.56a.79.79,0,0,0,.14.52.61.61,0,0,0,.43.17l.16,0c.11,0,.16.06.16.15"/><path class="cls-2" d="M65.13,29.49a1.16,1.16,0,0,0-.29.71h1.79a1.11,1.11,0,0,0-.23-.72.77.77,0,0,0-.62-.25.86.86,0,0,0-.65.26m1.76,1.77a.14.14,0,0,1,0,.1c0,.09-.07.17-.2.25a1.66,1.66,0,0,1-.88.25,1.31,1.31,0,0,1-1-.39,1.45,1.45,0,0,1-.38-1.06,1.71,1.71,0,0,1,.17-.77,1.23,1.23,0,0,1,.46-.52,1.31,1.31,0,0,1,.69-.18,1.11,1.11,0,0,1,.86.35,1.42,1.42,0,0,1,.32,1,.18.18,0,0,1-.2.2H64.83a1.15,1.15,0,0,0,.28.81.94.94,0,0,0,.73.28,1,1,0,0,0,.42-.07,2.84,2.84,0,0,0,.36-.17.46.46,0,0,1,.18-.09Z"/><path class="cls-2" d="M69.73,31.25a1.63,1.63,0,0,0,0-1.7.93.93,0,0,0-1.37,0,1.61,1.61,0,0,0,0,1.69.81.81,0,0,0,.68.31.83.83,0,0,0,.69-.3m.54-3.5a.22.22,0,0,1,0,.14v3.78a.21.21,0,0,1,0,.13.23.23,0,0,1-.26,0,.2.2,0,0,1,0-.13v-.39a.89.89,0,0,1-.38.43,1.13,1.13,0,0,1-.59.15,1.21,1.21,0,0,1-.66-.18,1.19,1.19,0,0,1-.44-.52,1.86,1.86,0,0,1-.15-.77,1.81,1.81,0,0,1,.15-.76,1.22,1.22,0,0,1,.44-.51,1.21,1.21,0,0,1,.66-.18,1.13,1.13,0,0,1,.59.15.94.94,0,0,1,.38.43V27.89a.21.21,0,0,1,0-.14.23.23,0,0,1,.26,0"/><path class="cls-2" d="M75,31.25a1.32,1.32,0,0,0,.24-.85,1.39,1.39,0,0,0-.23-.85.93.93,0,0,0-1.37,0,1.55,1.55,0,0,0,0,1.69.81.81,0,0,0,.68.31.83.83,0,0,0,.68-.3m.55-3.5a.22.22,0,0,1,0,.14v3.78a.21.21,0,0,1,0,.13.2.2,0,0,1-.13,0,.17.17,0,0,1-.13,0,.21.21,0,0,1-.05-.13v-.39a.88.88,0,0,1-.37.43,1.15,1.15,0,0,1-.59.15,1.21,1.21,0,0,1-.66-.18,1.13,1.13,0,0,1-.44-.52,1.71,1.71,0,0,1-.16-.77,1.67,1.67,0,0,1,.16-.76,1.16,1.16,0,0,1,.44-.51,1.21,1.21,0,0,1,.66-.18,1.15,1.15,0,0,1,.59.15.92.92,0,0,1,.37.43V27.89a.22.22,0,0,1,.05-.14.17.17,0,0,1,.13,0,.2.2,0,0,1,.13,0"/><path class="cls-2" d="M77.21,29.49a1.16,1.16,0,0,0-.29.71h1.79a1.05,1.05,0,0,0-.23-.72.76.76,0,0,0-.62-.25.87.87,0,0,0-.65.26M79,31.26a.14.14,0,0,1,0,.1c0,.09-.06.17-.2.25a1.63,1.63,0,0,1-.88.25,1.31,1.31,0,0,1-1-.39,1.44,1.44,0,0,1-.37-1.06,1.71,1.71,0,0,1,.16-.77,1.23,1.23,0,0,1,1.15-.7,1.1,1.1,0,0,1,.86.35,1.42,1.42,0,0,1,.32,1,.18.18,0,0,1-.2.2H76.91a1.19,1.19,0,0,0,.28.81.94.94,0,0,0,.74.28,1,1,0,0,0,.41-.07,2,2,0,0,0,.36-.17.46.46,0,0,1,.18-.09Z"/><path class="cls-2" d="M82,31.24a1.34,1.34,0,0,0,.25-.85,1.31,1.31,0,0,0-.25-.84.85.85,0,0,0-.69-.3.81.81,0,0,0-.68.3,1.63,1.63,0,0,0,0,1.7.83.83,0,0,0,.68.3.81.81,0,0,0,.69-.31m0-2.12a1.25,1.25,0,0,1,.45.51,1.81,1.81,0,0,1,.15.76,1.86,1.86,0,0,1-.15.77,1.21,1.21,0,0,1-.45.52,1.15,1.15,0,0,1-.65.18,1.1,1.1,0,0,1-.59-.15.89.89,0,0,1-.38-.43v.39a.2.2,0,0,1,0,.13.21.21,0,0,1-.13.05.17.17,0,0,1-.13-.05.17.17,0,0,1,0-.13V27.89a.17.17,0,0,1,0-.14.17.17,0,0,1,.13,0,.2.2,0,0,1,.13,0,.21.21,0,0,1,0,.14v1.63a.94.94,0,0,1,.38-.43,1.1,1.1,0,0,1,.59-.15,1.15,1.15,0,0,1,.65.18"/><path class="cls-2" d="M85,31.71a.14.14,0,0,1-.06.11.24.24,0,0,1-.16,0h-.17a.91.91,0,0,1-.65-.27,1.08,1.08,0,0,1-.21-.73V29.29h-.44a.18.18,0,0,1-.11,0,.13.13,0,0,1,0-.1.14.14,0,0,1,.15-.15h.44v-.72a.17.17,0,0,1,0-.13.17.17,0,0,1,.12-.05.17.17,0,0,1,.13.05.14.14,0,0,1,0,.13V29h.71a.15.15,0,0,1,.11,0,.14.14,0,0,1,0,.11.13.13,0,0,1,0,.1.2.2,0,0,1-.11,0h-.71v1.56a.79.79,0,0,0,.14.52.64.64,0,0,0,.44.17l.15,0c.11,0,.17.06.17.15"/><path class="cls-2" d="M88.85,29s0,.06,0,.12,0,.15-.17.16l-.17,0a.79.79,0,0,0-.61.29.91.91,0,0,0-.2.6v1.5a.17.17,0,0,1,0,.13.14.14,0,0,1-.13.05.15.15,0,0,1-.13-.05.17.17,0,0,1-.05-.13V29.13a.17.17,0,0,1,.05-.13.19.19,0,0,1,.13-.05.17.17,0,0,1,.12.05.17.17,0,0,1,0,.13v.37a1,1,0,0,1,.88-.54h.08a.3.3,0,0,1,.16,0"/><path class="cls-2" d="M90,29.49a1.16,1.16,0,0,0-.29.71h1.79a1.17,1.17,0,0,0-.23-.72.79.79,0,0,0-.62-.25.86.86,0,0,0-.65.26m1.76,1.77a.21.21,0,0,1,0,.1c0,.09-.07.17-.2.25a1.66,1.66,0,0,1-.88.25,1.35,1.35,0,0,1-1-.39,1.44,1.44,0,0,1-.37-1.06,1.71,1.71,0,0,1,.17-.77,1.23,1.23,0,0,1,.46-.52,1.31,1.31,0,0,1,.69-.18,1.11,1.11,0,0,1,.86.35,1.41,1.41,0,0,1,.31,1,.17.17,0,0,1-.19.2H89.71a1.15,1.15,0,0,0,.28.81.92.92,0,0,0,.73.28,1,1,0,0,0,.42-.07,2.84,2.84,0,0,0,.36-.17.36.36,0,0,1,.18-.09Z"/><path class="cls-2" d="M93.24,31.68a1.27,1.27,0,0,1-.46-.51,1.81,1.81,0,0,1-.16-.76,1.67,1.67,0,0,1,.17-.76,1.17,1.17,0,0,1,.46-.52,1.23,1.23,0,0,1,.69-.19,1.54,1.54,0,0,1,.43.06,1.4,1.4,0,0,1,.37.17.69.69,0,0,1,.15.14.2.2,0,0,1,0,.13.12.12,0,0,1,0,.1l-.08,0a.43.43,0,0,1-.19-.09,1.19,1.19,0,0,0-.3-.18,1,1,0,0,0-.36-.06.85.85,0,0,0-.71.31,1.31,1.31,0,0,0-.26.85,1.26,1.26,0,0,0,.26.84.85.85,0,0,0,.7.3,1,1,0,0,0,.37-.06,2.74,2.74,0,0,0,.32-.18l.1-.06.08,0a.1.1,0,0,1,.09,0,.13.13,0,0,1,0,.1.21.21,0,0,1,0,.12.58.58,0,0,1-.16.13,1.23,1.23,0,0,1-.38.19,1.72,1.72,0,0,1-.44.06,1.31,1.31,0,0,1-.69-.18"/><path class="cls-2" d="M97.59,31.25a1.31,1.31,0,0,0,.24-.85,1.36,1.36,0,0,0-.24-.85.93.93,0,0,0-1.37,0,1.36,1.36,0,0,0-.24.85,1.31,1.31,0,0,0,.24.85.81.81,0,0,0,.68.3.83.83,0,0,0,.69-.3m-1.36.43a1.2,1.2,0,0,1-.46-.51,1.68,1.68,0,0,1-.16-.77,1.71,1.71,0,0,1,.16-.77,1.2,1.2,0,0,1,.46-.51,1.36,1.36,0,0,1,1.35,0,1.2,1.2,0,0,1,.46.51,1.71,1.71,0,0,1,.16.77,1.68,1.68,0,0,1-.16.77,1.2,1.2,0,0,1-.46.51,1.36,1.36,0,0,1-1.35,0"/><path class="cls-2" d="M101.36,29a.17.17,0,0,1,.12.05.16.16,0,0,1,0,.11l0,.07-1.14,2.53a.2.2,0,0,1-.09.09.16.16,0,0,1-.12,0,.19.19,0,0,1-.12,0,.14.14,0,0,1-.08-.09L98.8,29.18l0-.07a.13.13,0,0,1,.07-.11A.17.17,0,0,1,99,29a.15.15,0,0,1,.15.1l1,2.34,1-2.33a.17.17,0,0,1,.15-.11"/><path class="cls-2" d="M102.79,29.49a1.16,1.16,0,0,0-.29.71h1.79a1.11,1.11,0,0,0-.23-.72.77.77,0,0,0-.62-.25.86.86,0,0,0-.65.26m1.76,1.77a.14.14,0,0,1,0,.1c0,.09-.07.17-.2.25a1.66,1.66,0,0,1-.88.25,1.31,1.31,0,0,1-1-.39,1.45,1.45,0,0,1-.38-1.06,1.71,1.71,0,0,1,.17-.77,1.23,1.23,0,0,1,.46-.52,1.31,1.31,0,0,1,.69-.18,1.11,1.11,0,0,1,.86.35,1.42,1.42,0,0,1,.32,1,.18.18,0,0,1-.2.2h-1.93a1.15,1.15,0,0,0,.28.81.94.94,0,0,0,.73.28,1,1,0,0,0,.42-.07,2.84,2.84,0,0,0,.36-.17.46.46,0,0,1,.18-.09Z"/><path class="cls-2" d="M107.05,29a.14.14,0,0,1,0,.12c0,.09-.06.15-.18.16l-.17,0a.81.81,0,0,0-.61.29,1,1,0,0,0-.2.6v1.5a.17.17,0,0,1,0,.13.13.13,0,0,1-.12.05.17.17,0,0,1-.14-.05.17.17,0,0,1,0-.13V29.13a.17.17,0,0,1,0-.13.22.22,0,0,1,.14-.05.17.17,0,0,1,.12.05.17.17,0,0,1,0,.13v.37a1,1,0,0,1,.88-.54h.09a.28.28,0,0,1,.15,0"/><path class="cls-2" d="M110.17,29a.21.21,0,0,1,.12.05.16.16,0,0,1,0,.11l0,.07-1.64,3.6a.17.17,0,0,1-.26.06.1.1,0,0,1,0-.1l0-.07.41-.9-1.19-2.59,0-.07a.14.14,0,0,1,.06-.11.18.18,0,0,1,.13-.05.14.14,0,0,1,.15.1l1,2.34,1-2.33a.16.16,0,0,1,.15-.11"/><path class="cls-3" d="M1.48,7.65V21.74c0,3.31,3.42,6.85,6.28,9.24a44.35,44.35,0,0,0,6.91,4.72c2-1.06,13.2-8.45,13.2-13.18V7.66a26.22,26.22,0,0,1-7.48-2.37,24.66,24.66,0,0,1-5.72-3.45C12.24,4.06,5.1,7.23,1.48,7.65m13.19,29.6a.69.69,0,0,1-.2,0C13.69,37,0,29.33,0,21.74V7a.74.74,0,0,1,.74-.74c1.49,0,4.43-.89,7.49-2.28C11.61,2.41,13.62,1,14.06.33A.74.74,0,0,1,14.68,0a.71.71,0,0,1,.61.33C15.75,1,17.73,2.44,21,3.94c3,1.41,6,2.28,7.59,2.28a.74.74,0,0,1,.74.74V22.52c0,6.28-13.82,14.52-14.47,14.7a.64.64,0,0,1-.2,0"/><path class="cls-3" d="M14.18,31.92h0Zm.2,1.45a.75.75,0,0,1-.72-.54.74.74,0,0,1,.47-.89c1.31-.6,10.51-7.31,10.51-11V10.07a.74.74,0,1,1,1.47,0V21c0,4.84-10.7,12.15-11.53,12.38l-.2,0"/><path class="cls-3" d="M4,22.19a.74.74,0,0,1-.74-.74V9.78A.74.74,0,0,1,4,9C6.62,9,13.48,6,14.35,4.7a.74.74,0,0,1,1-.2.73.73,0,0,1,.2,1c-1.13,1.69-7.54,4.53-10.87,5v11a.74.74,0,0,1-.74.74"/><path class="cls-4" d="M13.19,24.37,9,18.74a.89.89,0,1,1,1.26-1.26l2.87,2.87,6.45-7.26A.89.89,0,0,1,20.82,13a.88.88,0,0,1,.07,1.25Z"/></g></g></svg>