<svg id="Group_33" data-name="Group 33" xmlns="http://www.w3.org/2000/svg" viewBox="0 0 115.496 134.49">
  <defs>
    <style>
      .cls-1 {
        fill: #d02879;
      }

      .cls-2 {
        fill: #2c95d2;
      }
    </style>
  </defs>
  <g id="Group_31" data-name="Group 31">
    <path id="Path_91" data-name="Path 91" class="cls-1" d="M39.936,109.373l-36.179-.209L4.383,3.757,84.6,4.244l-.278,50.3a26.685,26.685,0,0,1,3.757,2.435l.278-54.617A1.871,1.871,0,0,0,86.483.487L2.5,0A1.916,1.916,0,0,0,.626,1.879L0,110.973a1.871,1.871,0,0,0,1.879,1.879l41.885.278A39.087,39.087,0,0,1,39.936,109.373Z"/>
    <path id="Path_92" data-name="Path 92" class="cls-1" d="M35.379,28.057l38.475.209a1.879,1.879,0,0,0,0-3.757L35.379,24.3A1.871,1.871,0,0,0,33.5,26.179,1.916,1.916,0,0,0,35.379,28.057Z" transform="translate(-10.192 -7.393)"/>
    <path id="Path_93" data-name="Path 93" class="cls-1" d="M21.879,50.157,79,50.5a1.879,1.879,0,0,0,0-3.757L21.879,46.4A1.871,1.871,0,0,0,20,48.279,1.916,1.916,0,0,0,21.879,50.157Z" transform="translate(-6.085 -14.117)"/>
    <path id="Path_94" data-name="Path 94" class="cls-1" d="M78.9,64.148,21.779,63.8a1.879,1.879,0,1,0,0,3.757L78.9,67.9a1.871,1.871,0,0,0,1.879-1.879A1.965,1.965,0,0,0,78.9,64.148Z" transform="translate(-6.054 -19.411)"/>
    <path id="Path_95" data-name="Path 95" class="cls-1" d="M21.679,81.3a1.879,1.879,0,1,0,0,3.757L47.7,85.2a43.916,43.916,0,0,1,4.383-3.688Z" transform="translate(-6.024 -24.735)"/>
    <path id="Path_96" data-name="Path 96" class="cls-1" d="M21.579,98.7a1.879,1.879,0,1,0,0,3.757l18.09.139c.487-1.252,1.113-2.5,1.739-3.757Z" transform="translate(-5.994 -30.029)"/>
    <path id="Path_97" data-name="Path 97" class="cls-1" d="M21.479,116.4a1.879,1.879,0,1,0,0,3.757l15.655.07a34.118,34.118,0,0,1,.278-3.757Z" transform="translate(-5.963 -35.414)"/>
  </g>
  <g id="Group_32" data-name="Group 32" transform="translate(33.883 52.808)">
    <path id="Path_98" data-name="Path 98" class="cls-2" d="M81.748,75.9A33.049,33.049,0,1,0,114.8,108.948,33.078,33.078,0,0,0,81.748,75.9Zm0,3.479a29.57,29.57,0,1,1-29.57,29.57A29.634,29.634,0,0,1,81.748,79.379Z" transform="translate(-48.7 -75.9)"/>
    <path id="Path_99" data-name="Path 99" class="cls-2" d="M142.6,161.549l-15.655-15.655a36.983,36.983,0,0,0,7.166-22.056,1.739,1.739,0,1,0-3.479,0,34.147,34.147,0,0,1-34.092,34.092,1.739,1.739,0,0,0,0,3.479,37.457,37.457,0,0,0,22.056-7.166L134.249,169.9a5.9,5.9,0,1,0,8.349-8.349Zm-2.435,5.844a2.261,2.261,0,0,1-1.67.7,2.429,2.429,0,0,1-1.67-.7l-15.446-15.376a39.414,39.414,0,0,0,3.409-3.409l15.376,15.376a2.261,2.261,0,0,1,.7,1.67A2.6,2.6,0,0,1,140.163,167.394Z" transform="translate(-62.726 -89.956)"/>
    <path id="Path_100" data-name="Path 100" class="cls-1" d="M100.411,109.245v-.487a8.2,8.2,0,0,0-6.679-8V98.6H90.879v2.157a8.138,8.138,0,0,0-6.679,8c0,3.409,2.3,6.4,5.914,7.792a9.854,9.854,0,0,0,1.531.487,19.424,19.424,0,0,1,2.574.974,5.414,5.414,0,0,1,3.409,4.87,5.289,5.289,0,0,1-10.576.139v-.487H84.2v.487a8.181,8.181,0,0,0,6.679,7.862v2.157h2.853v-2.157a8.032,8.032,0,0,0,4.8-13.08,9.773,9.773,0,0,0-4.453-2.853c-.417-.139-.835-.278-1.183-.417a11.984,11.984,0,0,1-3.827-1.739,5.108,5.108,0,0,1-2.018-4.035,5.288,5.288,0,1,1,10.576,0v.487h2.783Z" transform="translate(-59.501 -82.806)"/>
  </g>
</svg>
