<svg xmlns="http://www.w3.org/2000/svg" viewBox="0 0 109.712 139.51">
  <defs>
    <style>
      .cls-symbol {
        fill: #fff;
      }
    </style>
  </defs>
  <g id="Group_10" data-name="Group 10" transform="translate(-78.8 -43.9)">
    <g id="Group_6" data-name="Group 6" transform="translate(78.8 43.9)">
      <path id="Path_59" data-name="Path 59" class="cls-symbol" d="M133.656,183.41h-.677c-2.935-.9-54.179-29.573-54.179-58.016V69.861a2.608,2.608,0,0,1,2.709-2.709c5.644,0,16.705-3.386,27.992-8.578,12.642-5.644,20.317-11.062,21.9-13.545a2.778,2.778,0,0,1,2.257-1.129h0a2.778,2.778,0,0,1,2.257,1.129c1.806,2.483,9.03,7.9,21.446,13.545,11.513,5.192,22.349,8.578,28.444,8.578a2.608,2.608,0,0,1,2.709,2.709v58.468c0,23.477-51.921,54.4-54.179,55.082ZM84.218,72.344v52.824c0,12.416,12.867,25.735,23.477,34.765,10.836,9.03,22.349,16.028,25.961,17.608,7.675-4.063,49.438-31.6,49.438-49.438V72.344c-7-.677-17.157-3.838-27.992-8.8-7.675-3.612-16.705-8.578-21.446-12.867C124.4,59.025,97.763,70.764,84.218,72.344Z" transform="translate(-78.8 -43.9)"/>
      <path id="Path_60" data-name="Path 60" class="cls-symbol" d="M104.174,149.472a3.162,3.162,0,0,1-2.709-2.032,2.81,2.81,0,0,1,1.806-3.386c4.966-2.257,39.505-27.315,39.505-41.086V62.109a2.709,2.709,0,1,1,5.418,0v40.86c0,18.06-40.183,45.6-43.343,46.5Zm-.677-5.418Z" transform="translate(-50.447 -24.41)"/>
      <path id="Path_61" data-name="Path 61" class="cls-symbol" d="M86.809,117.845a2.608,2.608,0,0,1-2.709-2.709V71.342a2.608,2.608,0,0,1,2.709-2.709c9.933,0,35.668-11.513,39.054-16.254a2.756,2.756,0,0,1,4.515,3.16c-4.289,6.321-28.218,16.931-40.86,18.511v41.086A2.745,2.745,0,0,1,86.809,117.845Z" transform="translate(-72.135 -34.771)"/>
    </g>
    <path id="Path_62" data-name="Path 62" class="cls-symbol" d="M109.968,108.573l-15.8-21.22a3.352,3.352,0,0,1,4.741-4.741l10.836,10.836L133.9,66.133a3.356,3.356,0,1,1,4.966,4.515Z" transform="translate(18.044 26.528)"/>
  </g>
</svg>
